<?xml version="1.0" encoding="UTF-8" standalone="no"?>
<!-- Created with Inkscape (http://www.inkscape.org/) -->

<svg
   version="1.1"
   id="svg1"
   width="498.67416"
   height="499.15622"
   viewBox="0 0 498.67416 499.15622"
   sodipodi:docname="T2i-research-society.png"
   xml:space="preserve"
   xmlns:inkscape="http://www.inkscape.org/namespaces/inkscape"
   xmlns:sodipodi="http://sodipodi.sourceforge.net/DTD/sodipodi-0.dtd"
   xmlns="http://www.w3.org/2000/svg"
   xmlns:svg="http://www.w3.org/2000/svg"><defs
     id="defs1" /><sodipodi:namedview
     id="namedview1"
     pagecolor="#ffffff"
     bordercolor="#000000"
     borderopacity="0.25"
     inkscape:showpageshadow="2"
     inkscape:pageopacity="0.0"
     inkscape:pagecheckerboard="0"
     inkscape:deskcolor="#d1d1d1" /><g
     inkscape:groupmode="layer"
     inkscape:label="Image"
     id="g1"
     transform="translate(-0.37587184,0.16303536)"><g
       id="g2"><rect
         style="fill:#ffffff;fill-opacity:1;stroke:none;stroke-width:1.88976;stroke-linecap:square"
         id="rect2"
         width="375.84955"
         height="309.41611"
         x="59.153076"
         y="95.55497"
         ry="0" /><path
         style="fill:#00aa90;fill-opacity:1;stroke:none"
         d="m 230.55205,498.34236 -3.5,-0.33757 -12,-1.59748 -12,-1.59747 -15.18728,-3.85048 -15.18727,-3.85049 -11.5884,-4.53114 -11.58839,-4.53115 -13.22433,-6.72259 -13.22433,-6.72259 -11.5,-7.7053 -11.50001,-7.7053 -9.500008,-7.96175 -9.5,-7.96174 -10.78165,-11.16987 -10.78166,-11.16987 -8.72875,-11.71378 -8.72874,-11.71378 -5.63118,-9.5 -5.63119,-9.5 -3.98395,-8 -3.98394,-8 -4.68302,-11.86363 -4.68303,-11.86363 -3.36139,-12.26475 -3.3614004,-12.26476 -2.04175,-12.02143 -2.04175,-12.02143 -1.12638,-15.51698 -1.12637977,-15.51697 1.12866977,-14.83321 1.12867,-14.83321 1.44489,-9.14901 1.44489,-9.149 1.99759,-8.56711 1.99759,-8.56712 3.6429804,-11.28388 3.64297,-11.28388 4.04047,-9.5 4.04046,-9.5 3.94196,-7.5 3.94196,-7.5 5.01906,-8.35001 5.01906,-8.35001 7.2165,-9.64999 7.2165,-9.649993 8.18608,-9.21988 8.18609,-9.21989 9.21988,-8.1844 9.219895,-8.1844 9.000003,-6.6951 9.00001,-6.69509 8,-4.98203 8,-4.98202 8.5,-4.48756 8.5,-4.487561 9.53668,-4.07593 9.53667,-4.07594 12.72216,-4.067201 12.72216,-4.0672004 12.74116,-2.50206 12.74117,-2.50206 9.5,-0.99813 9.5,-0.99814 9.5,-0.61921996 9.5,-0.61923 14.5,1.08922 14.5,1.08921996 12.33312,2.0618 12.33312,2.0618 12.30325,3.37194 12.30325,3.3719504 11.86363,4.683491 11.86363,4.6835 9,4.509891 9,4.50989 9,5.4488 9,5.44879 11.49185,8.66638 11.49186,8.66637 10.8918,10.5 10.89179,10.5 7.96659,9.5 7.96659,9.5 8.32174,12.500003 8.32175,12.5 6.44498,13 6.44497,13 3.53374,9 3.53375,9 3.02266,10.5 3.02266,10.5 1.99228,9.5 1.99227,9.5 1.33335,9.5 1.33335,9.5 -0.0396,23 -0.0396,23 -1.76853,11.5 -1.76852,11.5 -2.87096,12 -2.87096,12 -3.60637,10.31333 -3.60637,10.31334 -4.55592,10.40293 -4.55592,10.40294 -6.15757,10.78607 -6.15758,10.78607 -6.63487,9.49766 -6.63487,9.49766 -9.73609,11.31475 -9.7361,11.31476 -9.62903,8.57707 -9.62904,8.57707 -7.54424,5.74648 -7.54424,5.74649 -8.45576,5.5101 -8.45576,5.5101 -10.5,5.53637 -10.5,5.53636 -11,4.48675 -11,4.48674 -11.57925,3.50912 -11.57924,3.50911 -12.92076,2.50384 -12.92075,2.50383 -11.5,1.06211 -11.5,1.06212 -14,-0.15662 -14,-0.15662 z m -119.71788,-94.71347 3.21788,-1.37112 2.2896,-2.48549 2.2896,-2.48548 0.56897,-3.50611 0.56896,-3.50612 -2.85857,-3.19555 -2.85856,-3.19556 -10.40499,-3.69172 -10.405003,-3.69173 -1.96289,-2.64637 -1.962895,-2.64636 0.93093,-2.79279 0.930935,-2.79279 2.76028,-2.06084 2.76028,-2.06085 h 6.220663 6.22065 l 2.84629,2 2.84629,2 1.31176,0.96463 1.31177,0.96463 0.7626,-0.76259 0.76259,-0.7626 -1.02798,-1.70203 -1.02799,-1.70204 -4.39853,-2.25 -4.39854,-2.25 h -4.82023 -4.820243 l -3.26457,1.36403 -3.26457,1.36402 -2.703315,3.2127 -2.70331,3.2127 v 3.52207 3.52206 l 3.02716,2.8278 3.027175,2.82779 9.317113,3.104 9.31709,3.10399 2.15574,2.00837 2.15574,2.00838 v 2.52679 2.52678 l -1.02964,1.92391 -1.02965,1.92391 -2.92069,1.51035 -2.9207,1.51035 h -5.1154 -5.115413 l -2.18426,-1.12496 -2.18426,-1.12497 -2.175975,-1.9798 -2.17598,-1.97981 -1.07673,0.66546 -1.07673,0.66546 1.03358,1.93126 1.03358,1.93126 3.719125,1.96385 3.71913,1.96386 5.782123,0.0442 5.78213,0.0442 z m 64.33722,-0.75941 5.69436,-2.13054 4.21443,-4.21443 4.21443,-4.21443 1.24326,-3.7671 1.24325,-3.7671 -0.43339,-5.22616 -0.43339,-5.22615 -2.93115,-4.09305 -2.93114,-4.09304 -4,-2.60809 -4,-2.6081 -5.42811,-1.58338 -5.42812,-1.58338 -5.6853,0.51553 -5.6853,0.51552 -4.88658,2.15844 -4.88659,2.15844 -3.33763,3.19877 -3.33763,3.19878 -1.91237,3.71016 -1.91237,3.71016 v 4.72412 4.72411 l 2.08979,4.31694 2.08979,4.31693 3.66021,3.0201 3.66021,3.02009 5,1.92659 5,1.92659 6.71249,0.0521 6.71248,0.0521 z m -20.62581,-1.74508 -2.50648,-0.82117 -2.99352,-1.56233 -2.99353,-1.56234 -2.69695,-2.83927 -2.69695,-2.83928 -1.55305,-3.71788 -1.55305,-3.71788 0.022,-2.78212 0.022,-2.78212 1.83574,-4.04137 1.83574,-4.04137 3.26302,-2.74565 3.26302,-2.74565 3.62928,-1.62259 3.62928,-1.62258 h 8 8 l 3.62928,1.62258 3.62928,1.62259 3.26302,2.74565 3.26302,2.74565 1.83574,4.04137 1.83574,4.04137 0.022,2.78212 0.022,2.78212 -1.55305,3.71788 -1.55305,3.71788 -2.69695,2.84158 -2.69695,2.84159 -4,2.07408 -4,2.07409 -7.5,0.30711 -7.5,0.30711 z m 86.71182,2.27255 0.36336,-1.10307 -7.28436,-0.55253 -7.28435,-0.55252 -3,-1.29566 -3,-1.29565 -2.77264,-1.88297 -2.77264,-1.88297 -2.0155,-3.95072 -2.01551,-3.95072 -0.0635,-5.31812 -0.0635,-5.31812 1.55059,-2.9985 1.55058,-2.9985 3.46532,-3.04259 3.46531,-3.04258 3.50982,-1.15835 3.50981,-1.15834 6.26231,-0.25658 6.26231,-0.25657 0.36869,-1.10608 0.36869,-1.10608 -2.16319,-0.68657 -2.16319,-0.68657 -5.64185,0.69408 -5.64186,0.69409 -4.7935,2.04948 -4.7935,2.04949 -3.29594,3.85056 -3.29594,3.85057 -1.16056,3.87359 -1.16056,3.8736 0.006,2.88398 0.006,2.88398 0.99045,3.56535 0.99044,3.56535 3.47096,4.05504 3.47097,4.05504 3.78301,1.80158 3.78302,1.80158 3,0.74727 3,0.74727 5.421,-0.16924 5.42099,-0.16924 z m 20.06362,-21.80665 0.26897,-22.74425 -1.76897,0.34005 -1.76897,0.34004 -0.27054,21.46221 -0.27055,21.46221 0.52107,1.35788 0.52107,1.35789 1.24948,-0.4159 1.24947,-0.41589 z m 50.98213,21.65971 0.41557,-1.25 h -14.58334 -14.58333 l -0.001,-10.75 -10e-4,-10.75 h 11.66578 11.66579 l 0.41868,-1.25 0.41868,-1.25 h -12.0836 -12.08333 v -7.97254 -7.97255 l 14.16796,-0.27745 14.16796,-0.27746 0.41537,-1.25 0.41538,-1.25 h -16.58334 -16.58333 v 22.33333 22.33334 l 0.69109,0.69109 0.69109,0.69109 15.47668,-0.27443 15.47668,-0.27442 z m 36.2489,-19.75 v -21.5 h 8.5 8.5 v -1.5 -1.5 h -18.5 -18.5 v 1.5 1.5 h 8.5 8.5 v 21.5 21.5 h 1.5 1.5 z m 53,9.88919 v -11.61081 l 8.5,-10.89245 8.5,-10.89245 v -0.38975 -0.38975 l -1.50139,-0.57614 -1.50138,-0.57613 -7.89237,10.48282 -7.89237,10.48283 -7.82014,-10.51368 -7.82014,-10.51368 h -0.72709 -0.72709 l -0.59841,0.96825 -0.59841,0.96826 8.53939,11.36888 8.5394,11.36889 v 11.16286 11.16286 h 1.5 1.5 z m -310.992778,-60.13919 0.007,-7.75 7.006485,-0.2949 7.006493,-0.29491 7.90327,8.29491 7.90327,8.2949 1.02578,-1 1.02579,-1 -7.06968,-7.78976 -7.06968,-7.78976 0.3769,-0.21024 0.37695,-0.21024 4,-2.12082 4,-2.12082 2.3314,-3.37918 2.33139,-3.37918 -0.50542,-3.16923 -0.50541,-3.16922 -1.73163,-2.64281 -1.73164,-2.6428 -4.80807,-2.43644 -4.80808,-2.43643 -7.26609,-1.03052 -7.266073,-1.03051 -2.770205,0.60843 -2.77019,0.60844 v 22.92055 22.92054 h 1.5 1.5 z m 0.687095,-10.889 -0.694335,-0.69433 v -11.83334 -11.83333 h 5.557185 5.557183 l 4.51742,1.1375 4.5174,1.13749 3.42542,3.23058 3.42541,3.23058 v 3.44484 3.44483 l -2.76417,2.64824 -2.76417,2.64825 -3.98583,1.39319 -3.98583,1.39318 -6.055683,0.67333 -6.05566,0.67333 z m 71.305683,17.16646 v -1.47255 l -14.25,-0.27745 -14.25,-0.27746 -0.28498,-10.25 -0.28499,-10.25 h 12.03499 12.03498 v -1.46826 -1.46827 l -11.75,-0.28173 -11.75,-0.28174 -0.29206,-7.75 -0.29207,-7.75 h 14.54207 14.54206 v -1.5 -1.5 h -16 -16 v 23 23 h 16 16 z m 32.28212,0.10142 3.21788,-1.37112 2.2896,-2.48549 2.2896,-2.48548 0.56897,-3.50611 0.56896,-3.50612 -2.85857,-3.19555 -2.85856,-3.19556 -10.40499,-3.69172 -10.40499,-3.69173 -1.96289,-2.64637 -1.96289,-2.64636 0.93093,-2.79279 0.93093,-2.79279 2.67351,-1.99606 2.67351,-1.99607 5.76344,-0.36992 5.76344,-0.36992 3,2.04072 3,2.04072 1.70204,1.22905 1.70203,1.22905 0.7626,-0.76259 0.76259,-0.7626 -1.02798,-1.70203 -1.02799,-1.70204 -4.39853,-2.25 -4.39854,-2.25 h -4.82023 -4.82023 l -3.26457,1.36403 -3.26457,1.36402 -2.70331,3.2127 -2.70331,3.2127 v 3.52207 3.52206 l 3.02717,2.8278 3.02716,2.82779 9.3171,3.104 9.31709,3.10399 2.15574,2.00837 2.15574,2.00838 v 2.52679 2.52678 l -1.02964,1.92391 -1.02965,1.92391 -2.92069,1.51035 -2.9207,1.51035 h -5.1154 -5.1154 l -2.18426,-1.12496 -2.18426,-1.12497 -2.17597,-1.9798 -2.17597,-1.97981 -1.08476,0.67042 -1.08475,0.67041 1.51272,2.1597 1.51271,2.15971 3.24801,1.73273 3.24801,1.73274 5.78212,0.0419 5.78212,0.0419 z m 49.71788,-0.12888 v -1.5 h -14.5 -14.5 v -10.46826 -10.46827 l 11.6684,-0.28173 11.66841,-0.28174 0.41493,-1.25 0.41493,-1.25 h -12.08334 -12.08333 v -8 -8 h 14.5 14.5 v -1.5 -1.5 h -16 -16 v 23 23 h 16 16 z m 12.82044,-4.5 2.65183,-6 h 13.08 13.07999 l 2.86774,6 2.86774,6 h 0.75711 0.75712 l 0.57803,-0.93527 0.57803,-0.93527 -10.01902,-21.63777 -10.01901,-21.63776 v -1.0103 -1.0103 l -1.07021,0.35674 -1.07021,0.35674 -10.39295,22.3817 -10.39294,22.38171 0.52217,0.84489 0.52217,0.84489 h 1.02529 1.02528 z m 6.22526,-13.5 1.7603,-4 3.90002,-8.34466 3.90003,-8.34466 5.44697,11.72818 5.44698,11.72817 0.25,0.61648 0.25,0.61649 h -11.3573 -11.3573 z m 42.96154,11.75 0.007,-7.75 6.87185,-0.28689 6.87184,-0.28689 7.46643,8.03689 7.46667,8.03689 h 1.15448 1.15449 v -1.22648 -1.22649 l -7.13591,-7.18385 -7.13591,-7.18386 4.01012,-2.04581 4.01012,-2.04581 2.62579,-3.12058 2.62579,-3.12057 v -3.88848 -3.88848 l -3.06033,-3.48552 -3.06032,-3.48551 -5.18968,-1.9153 -5.18967,-1.91529 -6.16595,-0.67413 -6.16595,-0.67413 -2.58405,0.64855 -2.58405,0.64856 v 22.22492 22.22493 l 0.66667,0.66666 0.66666,0.66667 h 1.33334 1.33333 z m 0.67032,-10.90578 -0.67756,-0.67755 v -11.96182 -11.96182 l 7.75,0.46282 7.75,0.46281 4.28419,2.20344 4.28419,2.20343 1.65553,3.47168 1.65553,3.47169 -0.95292,2.70961 -0.95292,2.70962 -3.38784,2.28306 -3.38784,2.28306 -3.59896,0.90074 -3.59896,0.90074 -5.07244,0.60803 -5.07245,0.60802 z m 70.32244,17.30082 v -1.35497 l -6.86598,-0.57561 -6.86597,-0.57562 -3.87038,-1.61715 -3.87038,-1.61715 -2.39556,-2.20227 -2.39557,-2.20227 -1.84612,-4 -1.84612,-4 v -4 -4 l 1.8692,-4.11609 1.86919,-4.11609 3.36328,-2.56529 3.36328,-2.5653 2.99556,-1.14039 2.99557,-1.14039 6.5,-0.37775 6.5,-0.37776 v -1.30047 -1.30047 l -7.24277,0.20001 -7.24277,0.2 -4.25723,1.99153 -4.25723,1.99153 -1.50614,1.30847 -1.50614,1.30846 -2.65474,3.22081 -2.65473,3.2208 -1.03181,4.81118 -1.03182,4.81118 0.99396,4.46801 0.99395,4.46802 2.58776,3.75436 2.58776,3.75436 3.56154,2.20116 3.56153,2.20115 4.54944,1.22699 4.54944,1.22699 5.25,0.0675 5.25,0.0675 z m 12,-10.64504 v -12 h 13 13 v 12.07332 12.07333 l 1.75,-0.33646 1.75,-0.33646 0.26877,-22.73687 0.26878,-22.73686 h -2.01878 -2.01877 v 9.5 9.5 h -13 -13 v -9.5 -9.5 h -2 -2 v 22.33333 22.33334 l 0.66667,0.66666 0.66666,0.66667 h 1.33334 1.33333 z m 19.78984,-47.90268 3.71016,-1.90268 2.20227,-2.36097 2.20227,-2.36096 1.54773,-3.70424 1.54773,-3.70423 v -32.57196 -32.57196 l -1.94109,-3.80484 -1.94108,-3.80484 -3.40693,-2.99132 -3.40693,-2.99133 3.76606,-4.03741 3.76606,-4.03741 1.07638,-3.87659 1.07638,-3.87658 v -6 -6 l -1.07034,-3.8547 -1.07034,-3.8547 -4.00439,-4.34425 -4.00439,-4.34425 -3.53176,-1.16559 -3.53176,-1.16558 -5.32347,0.44146 -5.32347,0.44146 -3.40464,2.3329 -3.40464,2.3329 -2.18709,3.19184 -2.18709,3.19185 -0.97274,3.39173 -0.97273,3.39173 0.006,6.0066 0.006,6.0066 1.10955,3.9967 1.10954,3.9967 4.36793,4.36793 4.36792,4.36792 -2.83454,2.64786 -2.83454,2.64787 -1.89851,3.48751 -1.89935,3.48751 v 33.5 33.5 l 1.65715,3.02078 1.65715,3.02079 2.84285,2.86788 2.84285,2.86788 3,1.32219 3,1.3222 5.28984,0.0391 5.28984,0.0391 z m -243.28984,-1.82195 4,-0.80762 0.27274,-17.65183 0.27274,-17.65184 -12.48985,-0.33204 -12.48984,-0.33204 -1.7829,-1.78348 -1.78289,-1.78349 -0.5,-26.4417 -0.5,-26.4417 14,-0.27481 14,-0.27482 0.27207,-18.75 0.27206,-18.75 -14.27206,5.3e-4 -14.27207,5.2e-4 v -20.75052 -20.75053 l -26.25,-0.2666 -26.250018,-0.26661 v 21.01661 21.0166 h -12 -12 v 19 19 h 11.93142 11.93142 l 0.34322,35.25 0.34322,35.25 2.327885,5.83196 2.32787,5.83196 2.94143,3.35011 2.94143,3.35011 4.337813,2.09989 4.33779,2.09988 4.36826,0.92067 4.36826,0.92066 22.5,-0.41112 22.5,-0.41112 z m 196.26989,-22.02537 0.26989,-21.25 h -59.51989 -59.51989 v -0.93191 -0.9319 l 2.95601,-2.10487 2.95602,-2.10487 4.29398,-1.88266 4.29399,-1.88267 31,-6.60573 31,-6.60572 7.32783,-2.43229 7.32782,-2.4323 6.67218,-3.72972 6.67217,-3.72971 5.06463,-5.06283 5.06463,-5.06282 3.39564,-6.89826 3.39563,-6.89826 0.4006,-9.15924 0.40059,-9.15925 -1.17542,-5.66197 -1.17542,-5.66197 -3.06973,-6.14308 -3.06974,-6.14308 -5.15048,-5.15048 -5.15047,-5.15048 -6.96523,-3.61313 -6.96523,-3.61314 -6.5,-2.09776 -6.5,-2.09776 -9,-1.61831 -9,-1.61831 -19.52623,-0.53932 -19.52624,-0.53932 -10.3392,1.20199 -10.3392,1.202 -7.58058,1.93879 -7.58059,1.93878 -8.45315,4.09156 -8.45315,4.09156 -7.1239,7.14922 -7.1239,7.14922 -3.79887,7.72018 -3.79886,7.72018 -1.91493,9.27982 -1.91493,9.27982 -0.0131,1.25 -0.0132,1.25 h 31.53138 31.53139 l 0.3907,-1.25 0.3907,-1.25 0.60226,-3.63825 0.60227,-3.63824 2.22565,-3.36176 2.22565,-3.36175 5.55485,-2.77995 5.55485,-2.77994 9.94515,-0.59911 9.94515,-0.59912 6.5,1.63858 6.5,1.63858 2.75,3.00626 2.75,3.00625 v 4.34937 4.34936 l -1.96611,2.4995 -1.9661,2.4995 -2.7839,1.10536 -2.78389,1.10536 -23,5.55126 -23,5.55127 -8,2.60518 -8,2.60517 -8.5,4.34604 -8.5,4.34604 -6.75863,5.61042 -6.75863,5.61042 -4.46408,6.25585 -4.46409,6.25586 -3.51139,7.41124 -3.51138,7.41125 -1.99644,7.83387 -1.99644,7.83387 -1.08952,10.89826 -1.08952,10.89827 0.63234,1.02314 0.63234,1.02315 90.68772,-0.25528 90.68772,-0.25528 z m 59.23011,-120.25 v -3 h -21.5 -21.5 v 3 3 h 21.5 21.5 z m -0.18358,-9.25 0.31642,-2.75 h -21.56642 -21.56642 v 3.01989 3.01989 l 21.25,-0.26989 21.25,-0.26989 z m -10.58547,-5.79732 3.73095,-1.03617 2.42738,-3.20825 2.42737,-3.20826 0.20237,-2.5 0.20236,-2.5 -0.11069,-2.26469 -0.11069,-2.26468 -3.42316,-3.73532 -3.42316,-3.735313 h -14.65368 -14.65368 l -3.42316,3.735313 -3.42316,3.73532 v 4.93796 4.93796 l 2.58291,3.06962 2.58292,3.06962 3.16708,0.91691 3.16709,0.91692 9.5,0.0846 9.5,0.0846 z"
         id="path2" /></g></g></svg>
